# xmcd
# 
# Track frame offsets:
#     150
#     26208
#     43058
#     69774
# 
# Disc length: 1152
# 
# Revision: 0
# Processed by: cddbd v1.5.2PL0 Copyright (c) Steve Scherf et al.
# Submitted via: fre:ac v1.0.17
# 
DISCID=2e047e04
DTITLE=Jimmy Hotz - The Gates Of Time
DYEAR=2007
DGENRE=Contemporary Christian
TTITLE0=I. Long Long Ago
TTITLE1=II. The Gates of Time
TTITLE2=III. The Realm of the Spirit
TTITLE3=IV. Song of the Desert
EXTD=
EXTT0=
EXTT1=
EXTT2=
EXTT3=
PLAYORDER=
